<svg width="52" height="9" viewBox="0 0 52 9" fill="none" xmlns="http://www.w3.org/2000/svg">
<path d="M5.89453 5.30273H2.51953V7.58789H6.48047V9H0.761719V0.46875H6.46875V1.89258H2.51953V3.92578H5.89453V5.30273ZM14.4492 9H12.6914L9.26953 3.38672V9H7.51172V0.46875H9.26953L12.6973 6.09375V0.46875H14.4492V9ZM20.9062 7.24219H17.8242L17.2383 9H15.3691L18.5449 0.46875H20.1738L23.3672 9H21.498L20.9062 7.24219ZM18.2988 5.81836H20.4316L19.3594 2.625L18.2988 5.81836ZM24.1641 9V0.46875H27.1523C28.1875 0.46875 28.9727 0.667969 29.5078 1.06641C30.043 1.46094 30.3105 2.04102 30.3105 2.80664C30.3105 3.22461 30.2031 3.59375 29.9883 3.91406C29.7734 4.23047 29.4746 4.46289 29.0918 4.61133C29.5293 4.7207 29.873 4.94141 30.123 5.27344C30.377 5.60547 30.5039 6.01172 30.5039 6.49219C30.5039 7.3125 30.2422 7.93359 29.7188 8.35547C29.1953 8.77734 28.4492 8.99219 27.4805 9H24.1641ZM25.9219 5.28516V7.58789H27.4277C27.8418 7.58789 28.1641 7.49023 28.3945 7.29492C28.6289 7.0957 28.7461 6.82227 28.7461 6.47461C28.7461 5.69336 28.3418 5.29688 27.5332 5.28516H25.9219ZM25.9219 4.04297H27.2227C28.1094 4.02734 28.5527 3.67383 28.5527 2.98242C28.5527 2.5957 28.4395 2.31836 28.2129 2.15039C27.9902 1.97852 27.6367 1.89258 27.1523 1.89258H25.9219V4.04297ZM33.5859 7.58789H37.3184V9H31.8281V0.46875H33.5859V7.58789ZM43.4648 5.30273H40.0898V7.58789H44.0508V9H38.332V0.46875H44.0391V1.89258H40.0898V3.92578H43.4648V5.30273ZM45.082 9V0.46875H47.707C48.457 0.46875 49.127 0.638672 49.7168 0.978516C50.3105 1.31445 50.7734 1.79492 51.1055 2.41992C51.4375 3.04102 51.6035 3.74805 51.6035 4.54102V4.93359C51.6035 5.72656 51.4395 6.43164 51.1113 7.04883C50.7871 7.66602 50.3281 8.14453 49.7344 8.48438C49.1406 8.82422 48.4707 8.99609 47.7246 9H45.082ZM46.8398 1.89258V7.58789H47.6895C48.377 7.58789 48.9023 7.36328 49.2656 6.91406C49.6289 6.46484 49.8145 5.82227 49.8223 4.98633V4.53516C49.8223 3.66797 49.6426 3.01172 49.2832 2.56641C48.9238 2.11719 48.3984 1.89258 47.707 1.89258H46.8398Z" fill="black"/>
</svg>
