<?xml version="1.0" standalone="no"?>
<svg viewBox="0 0 200 200" xmlns="http://www.w3.org/2000/svg">
  <path fill="#FF0066" d="M45.3,-77.5C59.3,-70.3,71.9,-59.5,78.9,-46C86,-32.5,87.6,-16.2,87.7,0.1C87.8,16.4,86.4,32.7,79.4,46.3C72.4,60,59.8,70.9,45.6,78.1C31.5,85.3,15.7,88.9,0.3,88.3C-15.1,87.8,-30.2,83.1,-44,75.7C-57.8,68.2,-70.3,58,-78.7,45C-87,31.9,-91.1,15.9,-91.1,0C-91.1,-16,-87.1,-31.9,-78.8,-45.1C-70.5,-58.2,-58,-68.6,-44.2,-75.9C-30.4,-83.2,-15.2,-87.5,0.2,-87.9C15.6,-88.2,31.2,-84.6,45.3,-77.5Z" transform="translate(100 100)" />
</svg>
